<svg width="40" height="40" viewBox="0 0 40 40" fill="none" xmlns="http://www.w3.org/2000/svg">
<path d="M0 4.00098C0 1.7913 1.7913 0 4.00098 0H35.999C38.2087 0 40 1.7913 40 4.00098V35.999C40 38.2087 38.2087 40 35.999 40H4.00098C1.7913 40 0 38.2087 0 35.999V4.00098Z" fill="#FFB900"/>
<path d="M11 17L20 10L29 17V28C29 28.5304 28.7893 29.0391 28.4142 29.4142C28.0391 29.7893 27.5304 30 27 30H13C12.4696 30 11.9609 29.7893 11.5858 29.4142C11.2107 29.0391 11 28.5304 11 28V17Z" stroke="white" stroke-width="1.99951" stroke-linecap="round" stroke-linejoin="round"/>
</svg>
