<svg width="16" height="16" viewBox="0 0 16 16" fill="none" xmlns="http://www.w3.org/2000/svg">
<g clip-path="url(#clip0_1_219)">
<path d="M14.6667 11.2799V13.2799C14.6674 13.4656 14.6294 13.6494 14.555 13.8195C14.4806 13.9896 14.3715 14.1423 14.2347 14.2679C14.0979 14.3934 13.9364 14.4889 13.7605 14.5484C13.5846 14.6079 13.3982 14.63 13.2133 14.6133C11.1619 14.3904 9.19132 13.6894 7.45998 12.5666C5.8492 11.5431 4.48354 10.1774 3.45998 8.56661C2.3333 6.82741 1.63215 4.84727 1.41332 2.78661C1.39666 2.60225 1.41857 2.41645 1.47765 2.24103C1.53673 2.0656 1.6317 1.9044 1.75649 1.76769C1.88129 1.63098 2.03319 1.52175 2.20251 1.44696C2.37184 1.37217 2.55488 1.33345 2.73998 1.33328H4.73998C5.06352 1.33009 5.37718 1.44466 5.62249 1.65563C5.8678 1.8666 6.02804 2.15957 6.07332 2.47994C6.15773 3.11999 6.31428 3.74843 6.53998 4.35328C6.62968 4.59189 6.64909 4.85122 6.59592 5.10053C6.54275 5.34984 6.41923 5.57868 6.23998 5.75994L5.39332 6.60661C6.34235 8.27564 7.72429 9.65757 9.39332 10.6066L10.24 9.75994C10.4212 9.5807 10.6501 9.45718 10.8994 9.40401C11.1487 9.35083 11.408 9.37025 11.6467 9.45994C12.2515 9.68564 12.8799 9.84219 13.52 9.92661C13.8438 9.9723 14.1396 10.1354 14.351 10.3849C14.5624 10.6345 14.6748 10.953 14.6667 11.2799Z" stroke="white" stroke-width="1.33301" stroke-linecap="round" stroke-linejoin="round"/>
</g>
<defs>
<clipPath id="clip0_1_219">
<rect width="15.9961" height="15.9961" fill="white" transform="scale(1.00024)"/>
</clipPath>
</defs>
</svg>
